<svg width="24" height="25" viewBox="0 0 24 25" fill="none" xmlns="http://www.w3.org/2000/svg">
<path d="M13.001 20.2867C16.9473 19.7946 20.001 16.4282 20.001 12.3486C20.001 7.93035 16.4193 4.34863 12.001 4.34863C7.5827 4.34863 4.00098 7.93035 4.00098 12.3486C4.00098 16.4282 7.05467 19.7946 11.001 20.2867V14.3486H9.00098V12.3486H11.001V10.6944C11.001 9.35718 11.1402 8.87225 11.4017 8.38336C11.6631 7.89447 12.0468 7.51079 12.5357 7.24933C12.9184 7.04467 13.3931 6.92115 14.2227 6.86817C14.5519 6.84714 14.9781 6.87396 15.501 6.94863V8.84863H15.001C14.0837 8.84863 13.7052 8.89195 13.4789 9.01296C13.3386 9.08802 13.2404 9.18621 13.1653 9.32656C13.0443 9.55281 13.001 9.77716 13.001 10.6944V12.3486H15.501L15.001 14.3486H13.001V20.2867ZM12.001 22.3486C6.47813 22.3486 2.00098 17.8714 2.00098 12.3486C2.00098 6.82578 6.47813 2.34863 12.001 2.34863C17.5238 2.34863 22.001 6.82578 22.001 12.3486C22.001 17.8714 17.5238 22.3486 12.001 22.3486Z" fill="#FDEFE7"/>
</svg>
