<svg width="24" height="25" viewBox="0 0 24 25" fill="none" xmlns="http://www.w3.org/2000/svg">
<path d="M12.001 9.34863C10.3436 9.34863 9.00098 10.6917 9.00098 12.3486C9.00098 14.0059 10.3441 15.3486 12.001 15.3486C13.6583 15.3486 15.001 14.0055 15.001 12.3486C15.001 10.6913 13.6579 9.34863 12.001 9.34863ZM12.001 7.34863C14.7614 7.34863 17.001 9.58573 17.001 12.3486C17.001 15.1091 14.7639 17.3486 12.001 17.3486C9.24051 17.3486 7.00098 15.1115 7.00098 12.3486C7.00098 9.58816 9.23808 7.34863 12.001 7.34863ZM18.501 7.09778C18.501 7.78789 17.9402 8.3478 17.251 8.3478C16.5609 8.3478 16.001 7.78703 16.001 7.09778C16.001 6.40853 16.5617 5.84863 17.251 5.84863C17.9393 5.84776 18.501 6.40853 18.501 7.09778ZM12.001 4.34863C9.5265 4.34863 9.12318 4.35518 7.97227 4.40643C7.18815 4.44324 6.66253 4.5487 6.17416 4.7383C5.74016 4.90662 5.42709 5.10761 5.09352 5.44118C4.75867 5.77603 4.55804 6.08826 4.3904 6.52246C4.20036 7.01195 4.09493 7.53674 4.05878 8.31978C4.00703 9.42383 4.00098 9.80968 4.00098 12.3486C4.00098 14.8231 4.00753 15.2264 4.05877 16.3772C4.0956 17.161 4.2012 17.6874 4.39034 18.1746C4.5591 18.6092 4.7605 18.923 5.09246 19.255C5.42863 19.5907 5.74179 19.792 6.17187 19.958C6.66619 20.1491 7.19148 20.2547 7.97212 20.2908C9.07618 20.3425 9.46203 20.3486 12.001 20.3486C14.4755 20.3486 14.8788 20.342 16.0296 20.2908C16.8117 20.2541 17.3385 20.1482 17.827 19.9592C18.2604 19.7909 18.5752 19.5888 18.9074 19.2571C19.2436 18.9204 19.4445 18.608 19.6107 18.1769C19.8013 17.6844 19.9071 17.1584 19.9432 16.3775C19.9949 15.2734 20.001 14.8875 20.001 12.3486C20.001 9.87415 19.9944 9.47084 19.9432 8.32C19.9064 7.53769 19.8005 7.01012 19.6113 6.52181C19.4434 6.08901 19.2417 5.77498 18.9084 5.44118C18.573 5.10578 18.2616 4.90556 17.8271 4.73805C17.338 4.54817 16.8124 4.44259 16.0298 4.40644C14.9258 4.35468 14.5399 4.34863 12.001 4.34863ZM12.001 2.34863C14.7176 2.34863 15.0568 2.35863 16.1235 2.40863C17.1876 2.4578 17.9135 2.62613 18.551 2.87363C19.2101 3.1278 19.7668 3.47113 20.3226 4.02696C20.8776 4.5828 21.221 5.14113 21.476 5.79863C21.7226 6.4353 21.891 7.16196 21.941 8.22613C21.9885 9.2928 22.001 9.63196 22.001 12.3486C22.001 15.0653 21.991 15.4044 21.941 16.4711C21.8918 17.5353 21.7226 18.2611 21.476 18.8986C21.2218 19.5578 20.8776 20.1144 20.3226 20.6703C19.7668 21.2253 19.2076 21.5686 18.551 21.8236C17.9135 22.0703 17.1876 22.2386 16.1235 22.2886C15.0568 22.3361 14.7176 22.3486 12.001 22.3486C9.28431 22.3486 8.94514 22.3386 7.87848 22.2886C6.81431 22.2394 6.08931 22.0703 5.45098 21.8236C4.79264 21.5694 4.23514 21.2253 3.67931 20.6703C3.12348 20.1144 2.78098 19.5553 2.52598 18.8986C2.27848 18.2611 2.11098 17.5353 2.06098 16.4711C2.01348 15.4044 2.00098 15.0653 2.00098 12.3486C2.00098 9.63196 2.01098 9.2928 2.06098 8.22613C2.11014 7.16113 2.27848 6.43613 2.52598 5.79863C2.78014 5.1403 3.12348 4.5828 3.67931 4.02696C4.23514 3.47113 4.79348 3.12863 5.45098 2.87363C6.08848 2.62613 6.81348 2.45863 7.87848 2.40863C8.94514 2.36113 9.28431 2.34863 12.001 2.34863Z" fill="#FDEFE7"/>
</svg>
