<svg width="24" height="25" viewBox="0 0 24 25" fill="none" xmlns="http://www.w3.org/2000/svg">
<path d="M16 8.594V15.8486C16 19.4385 13.0899 22.3486 9.5 22.3486C5.91015 22.3486 3 19.4385 3 15.8486C3 12.2587 5.91015 9.34863 9.5 9.34863C10.0163 9.34863 10.5185 9.40882 11 9.52256V12.6854C10.5454 12.4694 10.0368 12.3486 9.5 12.3486C7.567 12.3486 6 13.9156 6 15.8486C6 17.7816 7.567 19.3486 9.5 19.3486C11.433 19.3486 13 17.7816 13 15.8486V2.34863H16C16 5.11005 18.2386 7.34863 21 7.34863V10.3486C19.1081 10.3486 17.3696 9.69191 16 8.594Z" fill="#FDEFE7"/>
</svg>
